<svg width="324" height="324" xmlns="http://www.w3.org/2000/svg" xmlns:xlink="http://www.w3.org/1999/xlink" xml:space="preserve" overflow="hidden"><g transform="translate(-1672 -916)"><rect x="1673.5" y="917.5" width="321" height="321" stroke="#E0DFDA" stroke-width="3.4375" stroke-linejoin="round" stroke-miterlimit="10" fill="#E0DFDA" fill-opacity="0"/><g><g><g><path d="M1742.02 991.882C1747 996.918 1753.91 1000.02 1761.55 1000.02L1933.12 1000.02C1939.21 1000.02 1944.19 1005 1944.19 1011.09L1944.19 1221.4 1761.55 1221.4C1740.19 1221.4 1722.81 1204.02 1722.81 1182.66L1722.81 972.345C1722.81 950.982 1740.19 933.604 1761.55 933.604L1933.12 933.604C1939.21 933.604 1944.19 938.585 1944.19 944.672 1883.31 944.672 1822.43 944.672 1761.55 944.672 1746.33 944.672 1733.88 957.125 1733.88 972.345 1733.88 979.706 1736.81 986.679 1742.02 991.882ZM1799.41 1083.59C1792.99 1088.9 1789.22 1096.7 1789.22 1105.06 1789.22 1120.28 1801.62 1132.84 1816.9 1132.84L1850.1 1132.84C1856.52 1132.84 1862.5 1134.67 1867.59 1137.83 1874.01 1132.51 1877.78 1124.71 1877.78 1116.35 1877.78 1101.13 1865.38 1088.57 1850.1 1088.57L1816.9 1088.57C1810.48 1088.57 1804.5 1086.74 1799.41 1083.59ZM1875.95 1145.13C1880.6 1150.83 1883.37 1158.08 1883.37 1166 1883.37 1184.32 1868.42 1199.26 1850.1 1199.26L1816.9 1199.26C1798.58 1199.26 1783.69 1184.37 1783.69 1166.05L1783.69 1162.56 1794.76 1162.56 1794.76 1166.05C1794.76 1178.28 1804.67 1188.19 1816.9 1188.19L1850.1 1188.19C1862.33 1188.19 1872.3 1178.23 1872.3 1166 1872.3 1159.85 1869.81 1154.37 1865.82 1150.39 1861.78 1146.4 1856.25 1143.91 1850.1 1143.91L1816.9 1143.91C1795.59 1143.91 1778.16 1126.37 1778.16 1105.06 1778.16 1093.99 1782.86 1083.59 1791.05 1076.23 1786.4 1070.58 1783.63 1063.33 1783.63 1055.42 1783.63 1037.1 1798.58 1022.16 1816.9 1022.16L1850.1 1022.16C1868.42 1022.16 1883.31 1037.04 1883.31 1055.36L1883.31 1058.85 1872.24 1058.85 1872.24 1055.36C1872.24 1043.13 1862.33 1033.22 1850.1 1033.22L1816.9 1033.22C1804.67 1033.22 1794.7 1043.19 1794.7 1055.42 1794.7 1067.7 1804.67 1077.5 1816.9 1077.5L1850.1 1077.5C1871.41 1077.5 1888.84 1095.04 1888.84 1116.35 1888.84 1127.37 1884.14 1137.83 1875.95 1145.13ZM1745.89 977.879 1933.12 977.879 1933.12 988.948 1760.72 988.948C1753.97 988.616 1748.16 984.244 1745.89 977.879ZM1761.55 955.741 1933.12 955.741 1933.12 966.81 1745.89 966.81C1748.21 960.169 1754.52 955.741 1761.55 955.741ZM1733.88 999.409 1733.88 1182.66C1733.88 1197.87 1746.33 1210.33 1761.55 1210.33L1933.12 1210.33 1933.12 1011.09 1761.55 1011.09C1751.04 1011.09 1741.3 1006.88 1733.88 999.409Z" fill="#F07D00"/></g></g></g></g></svg>