<svg width="288" height="276" xmlns="http://www.w3.org/2000/svg" xmlns:xlink="http://www.w3.org/1999/xlink" xml:space="preserve" overflow="hidden"><defs><clipPath id="clip0"><rect x="2480" y="927" width="288" height="276"/></clipPath></defs><g clip-path="url(#clip0)" transform="translate(-2480 -927)"><path d="M2629.54 1191.96C2639.67 1191.96 2656.84 1190.97 2668.86 1187.87 2674.95 1186.27 2679.38 1184.62 2679.38 1183.13 2679.38 1179.76 2678.72 1176.28 2677.45 1173.02 2676.28 1170.1 2674.51 1167.34 2672.3 1165.19 2670.74 1163.7 2667.31 1162.43 2664.6 1161.43L2664.54 1161.43 2664.54 1161.43 2663.93 1161.21C2662.27 1160.6 2660.78 1160.16 2659.39 1159.72 2655.9 1158.67 2652.91 1157.79 2648.76 1155.25L2648.65 1155.14C2642.11 1151.22 2642.66 1144.15 2643.22 1137.86 2643.33 1136.37 2643.44 1134.99 2643.38 1134.11 2643.38 1132.56 2643.99 1131.12 2645.05 1130.08L2645.05 1130.08C2647.87 1127.32 2649.09 1122.46 2650.31 1117.88 2650.64 1116.61 2650.81 1115.94 2650.86 1115.67 2651.3 1114.01 2652.47 1112.74 2653.91 1112.08 2654.96 1111.53 2655.74 1110.48 2656.18 1109.32 2656.79 1107.72 2656.84 1105.84 2656.4 1104.24 2656.12 1103.25 2656.12 1102.31 2656.34 1101.37L2656.34 1101.37C2658.06 1094.41 2658.28 1088.56 2657.23 1083.65 2656.23 1078.96 2653.96 1075.04 2650.53 1071.67 2646.65 1067.81 2639.78 1065.6 2632.97 1065.1 2626.22 1064.66 2619.85 1065.87 2616.86 1068.91 2615.86 1069.85 2614.7 1070.4 2613.42 1070.51 2612.76 1070.57 2612.15 1070.73 2611.59 1070.84 2606.61 1072.06 2603.73 1075.04 2602.29 1078.79 2600.63 1083.26 2600.63 1088.95 2601.46 1094.64 2601.79 1096.95 2602.23 1099.22 2602.79 1101.37 2603.01 1102.42 2602.95 1103.47 2602.62 1104.41 2602.23 1106.01 2602.29 1107.77 2602.9 1109.32 2603.4 1110.53 2604.17 1111.58 2605.34 1112.19 2606.78 1112.91 2607.83 1114.18 2608.22 1115.67L2608.22 1115.67C2608.44 1116.61 2608.38 1116.33 2608.71 1117.71 2609.99 1122.4 2611.26 1127.37 2614.03 1130.08 2615.14 1131.12 2615.69 1132.56 2615.69 1134L2615.69 1134C2615.69 1134.99 2615.8 1136.15 2615.86 1137.31 2616.36 1143.77 2616.97 1151.44 2610.15 1155.36L2610.1 1155.36C2606.06 1157.84 2603.12 1158.73 2599.69 1159.72 2598.3 1160.16 2596.81 1160.6 2595.15 1161.21L2594.54 1161.43C2594.42 1161.49 2594.37 1161.49 2594.26 1161.54 2591.54 1162.54 2588.28 1163.75 2586.78 1165.19 2584.57 1167.34 2582.85 1170.1 2581.63 1173.02 2580.36 1176.28 2579.69 1179.76 2579.69 1183.13 2579.69 1184.62 2584.12 1186.27 2590.22 1187.87 2602.23 1190.97 2619.4 1191.96 2629.54 1191.96ZM2518.44 1035.68C2521.65 1034.79 2524.97 1034.52 2528.24 1034.85 2530.68 1035.13 2533.06 1035.68 2535.38 1036.62 2537.71 1035.68 2540.09 1035.13 2542.53 1034.85 2545.8 1034.52 2549.12 1034.79 2552.33 1035.68 2557.98 1037.28 2562.86 1041.25 2566.18 1046.17 2569.5 1051.13 2571.33 1057.21 2570.78 1063 2570.39 1067.47 2570.5 1078.52 2572.22 1088.78 2573.27 1095.08 2574.82 1100.82 2577.2 1103.91L2579.53 1107.06 2577.37 1110.26C2573.54 1116 2568.06 1118.43 2562.41 1119.42 2563.3 1119.81 2564.24 1120.08 2565.24 1120.36 2566.62 1120.8 2568.17 1121.24 2570 1121.91L2570 1121.91 2570.5 1122.07C2573.93 1123.34 2578.14 1124.89 2581.19 1127.81 2584.29 1130.79 2586.62 1134.49 2588.22 1138.52 2588.44 1139.02 2588.61 1139.52 2588.83 1140.07 2588.39 1140.18 2587.94 1140.34 2587.5 1140.51L2586.89 1140.73C2586.62 1140.84 2586.39 1140.95 2586.12 1141.06 2583.74 1141.94 2581.19 1142.88 2578.58 1144.26 2578.42 1143.71 2578.2 1143.1 2577.98 1142.55 2576.92 1139.96 2575.43 1137.58 2573.49 1135.71 2572.16 1134.44 2569.17 1133.33 2566.73 1132.45L2566.18 1132.23 2566.18 1132.23C2564.68 1131.68 2563.35 1131.29 2562.08 1130.9 2558.87 1129.97 2556.21 1129.14 2552.39 1126.82L2552.39 1126.82C2550.23 1125.55 2548.57 1124.22 2547.29 1122.35L2547.29 1122.35C2545.91 1120.42 2545.19 1118.21 2544.86 1115.28L2544.19 1109.15 2550.34 1109.15C2555.43 1109.15 2561.86 1109.15 2565.9 1106.39 2563.74 1101.98 2562.25 1096.4 2561.3 1090.61 2559.42 1079.4 2559.31 1067.03 2559.81 1062.01 2560.09 1058.81 2558.98 1055.27 2556.98 1052.29 2555.05 1049.42 2552.33 1047.16 2549.34 1046.28 2547.4 1045.78 2545.52 1045.61 2543.69 1045.78 2541.7 1046 2539.76 1046.61 2537.88 1047.55L2535.38 1048.76 2532.89 1047.55C2531.01 1046.61 2529.07 1046 2527.08 1045.78 2525.25 1045.61 2523.37 1045.78 2521.43 1046.28 2518.44 1047.16 2515.72 1049.42 2513.78 1052.29 2511.79 1055.27 2510.68 1058.81 2510.96 1062.01 2511.46 1067.03 2511.35 1079.4 2509.46 1090.61 2508.52 1096.4 2507.03 1101.98 2504.87 1106.39 2508.91 1109.15 2515.34 1109.15 2520.43 1109.15L2526.63 1109.15 2525.91 1115.34C2525.58 1118.26 2524.75 1120.47 2523.42 1122.4L2523.42 1122.4C2522.04 1124.33 2520.38 1125.66 2518.22 1126.93L2518.22 1126.93C2514.5 1129.19 2511.85 1129.97 2508.69 1130.9 2507.42 1131.29 2506.09 1131.68 2504.59 1132.23L2504.59 1132.23 2504.04 1132.45C2501.6 1133.33 2498.61 1134.44 2497.28 1135.71 2495.34 1137.58 2493.85 1139.96 2492.79 1142.55 2491.63 1145.37 2491.08 1148.46 2491.08 1151.44 2491.08 1152.49 2494.9 1153.81 2500.16 1155.19 2510.9 1157.95 2526.25 1158.84 2535.38 1158.84 2543.19 1158.84 2555.54 1158.17 2565.68 1156.3 2563.85 1159 2562.36 1161.93 2561.14 1164.91 2560.7 1166.07 2560.25 1167.17 2559.92 1168.33 2550.95 1169.44 2541.7 1169.88 2535.38 1169.88 2525.75 1169.88 2509.24 1168.88 2497.39 1165.85 2487.31 1163.2 2480 1158.73 2480 1151.44 2480 1147.19 2480.83 1142.72 2482.55 1138.52 2484.15 1134.49 2486.48 1130.79 2489.58 1127.81 2492.63 1124.89 2496.84 1123.34 2500.27 1122.07L2500.77 1121.91 2500.77 1121.91C2502.6 1121.24 2504.15 1120.8 2505.53 1120.36 2506.53 1120.08 2507.47 1119.81 2508.36 1119.42 2502.71 1118.43 2497.22 1116 2493.4 1110.26L2491.24 1107.06 2493.57 1103.91C2495.95 1100.82 2497.5 1095.08 2498.55 1088.78 2500.27 1078.52 2500.38 1067.47 2499.99 1063 2499.44 1057.21 2501.27 1051.13 2504.59 1046.17 2507.91 1041.25 2512.79 1037.28 2518.44 1035.68ZM2684.59 994.219C2687.8 993.28 2691.13 993.06 2694.39 993.391 2696.83 993.612 2699.21 994.219 2701.54 995.158 2703.86 994.219 2706.25 993.612 2708.68 993.391 2711.95 993.06 2715.27 993.28 2718.49 994.219 2724.14 995.82 2729.01 999.795 2732.33 1004.71 2735.66 1009.68 2737.48 1015.75 2736.93 1021.55 2736.76 1023.59 2736.65 1027.07 2736.82 1031.21 2733.94 1030.05 2730.89 1029.27 2727.74 1029 2727.07 1028.89 2726.41 1028.89 2725.74 1028.83 2725.69 1025.35 2725.8 1022.43 2725.96 1020.55 2726.24 1017.35 2725.13 1013.82 2723.14 1010.84 2721.2 1007.96 2718.49 1005.7 2715.5 1004.82 2713.56 1004.32 2711.67 1004.16 2709.85 1004.32 2707.85 1004.54 2705.91 1005.15 2704.03 1006.09L2701.54 1007.3 2699.05 1006.09C2697.16 1005.15 2695.22 1004.54 2693.23 1004.32 2691.4 1004.16 2689.52 1004.32 2687.58 1004.82 2684.59 1005.7 2681.88 1007.96 2679.94 1010.84 2677.94 1013.82 2676.84 1017.29 2677.11 1020.55 2677.45 1023.97 2677.5 1030.71 2676.95 1038.16 2671.96 1043.02 2668.36 1049.26 2666.87 1056.71 2666.65 1056.49 2666.43 1056.27 2666.2 1056.05 2665.32 1055.16 2664.43 1054.34 2663.43 1053.56 2663.93 1051.63 2664.38 1049.48 2664.71 1047.33 2666.43 1037.06 2666.54 1025.96 2666.15 1021.55 2665.59 1015.75 2667.42 1009.68 2670.74 1004.71 2674.07 999.795 2678.94 995.82 2684.59 994.219ZM2689.19 1079.51C2689.24 1080.23 2689.13 1080.94 2688.91 1081.61 2688.58 1082.88 2688.69 1084.31 2689.19 1085.58 2689.52 1086.58 2690.18 1087.4 2691.07 1087.84 2692.57 1088.62 2693.56 1089.89 2693.95 1091.38L2693.95 1091.38C2694.67 1093.97 2696 1097.45 2697.61 1100.65 2698.88 1103.14 2700.26 1105.29 2701.54 1106.56 2702.65 1107.66 2703.2 1109.04 2703.2 1110.48L2703.2 1110.48C2703.2 1113.07 2703.03 1116.61 2702.15 1120.03 2702.15 1120.14 2702.15 1120.19 2702.09 1120.3 2701.04 1124.33 2699.05 1128.09 2695.45 1130.19L2695.39 1130.19C2691.74 1132.45 2689.08 1133.28 2685.92 1134.22 2684.65 1134.55 2683.32 1134.99 2681.82 1135.49L2681.27 1135.71C2681.21 1135.76 2681.1 1135.76 2681.05 1135.82 2678.67 1136.65 2675.78 1137.75 2674.51 1138.96 2673.85 1139.57 2673.29 1140.23 2672.74 1140.95L2672.18 1140.79 2672.18 1140.73 2671.58 1140.51C2669.42 1139.74 2667.64 1139.18 2666.04 1138.74 2668.03 1135.38 2669.3 1131.9 2670.3 1128.53 2672.57 1127.21 2675.06 1126.27 2677.22 1125.44 2677.34 1125.44 2677.39 1125.38 2677.5 1125.38L2678 1125.16C2679.83 1124.5 2681.38 1124.06 2682.76 1123.62 2685.14 1122.9 2687.14 1122.29 2689.58 1120.8 2689.69 1120.75 2689.8 1120.69 2689.91 1120.58 2690.57 1120.25 2691.02 1119.04 2691.4 1117.6L2691.46 1117.43C2691.85 1115.83 2692.01 1114.12 2692.07 1112.52 2690.52 1110.53 2689.02 1108.16 2687.75 1105.68 2686.2 1102.58 2684.81 1099.22 2683.93 1096.35 2682.26 1095.13 2680.94 1093.59 2679.94 1091.87 2680.1 1087.29 2679.72 1083.04 2678.89 1078.96 2678.55 1077.63 2678.22 1076.31 2677.83 1075.04L2677.17 1064.94 2677.17 1064.94C2677.17 1064.82 2677.17 1064.77 2677.17 1064.66 2677.17 1063 2677.28 1061.4 2677.5 1059.86 2678.67 1052.79 2682.6 1047.16 2687.91 1043.3 2693.06 1039.6 2699.6 1037.55 2706.25 1037.44 2708.24 1037.39 2710.23 1037.5 2712.23 1037.83 2714.55 1038.22 2716.27 1038.71 2717.88 1039.43 2718.65 1039.76 2719.32 1040.15 2720.04 1040.54 2722.31 1039.87 2724.52 1039.71 2726.74 1039.93 2730.89 1040.31 2734.82 1042.03 2738.15 1044.57 2741.36 1046.99 2744.07 1050.25 2745.85 1053.84 2747.51 1057.21 2748.34 1060.91 2748.06 1064.55L2748.06 1064.77 2747.12 1079.34C2747.84 1082.66 2747.62 1086.3 2746.4 1089.5 2745.4 1092.15 2743.69 1094.58 2741.3 1096.35 2740.42 1099.22 2739.03 1102.58 2737.48 1105.68 2736.21 1108.16 2734.77 1110.53 2733.16 1112.52 2733.27 1114.12 2733.44 1115.89 2733.77 1117.49 2734.1 1118.92 2734.55 1120.14 2735.21 1120.53 2735.27 1120.58 2735.38 1120.64 2735.49 1120.69 2738.04 1122.29 2740.03 1122.9 2742.47 1123.62 2743.85 1124.06 2745.4 1124.5 2747.23 1125.16L2747.23 1125.16 2747.73 1125.38C2751.16 1126.6 2755.43 1128.14 2758.42 1131.07 2761.52 1134.05 2763.85 1137.8 2765.45 1141.78 2767.17 1145.97 2768 1150.45 2768 1154.7 2768 1162.04 2760.69 1166.51 2750.61 1169.11 2738.76 1172.2 2722.25 1173.13 2712.62 1173.13 2709.24 1173.13 2704.97 1173.02 2700.38 1172.75 2699.77 1170.1 2698.99 1167.5 2697.94 1164.91 2697.44 1163.75 2696.94 1162.54 2696.33 1161.38 2702.42 1161.93 2708.24 1162.09 2712.62 1162.09 2721.75 1162.09 2737.1 1161.21 2747.84 1158.45 2753.1 1157.07 2756.92 1155.75 2756.92 1154.7 2756.92 1151.72 2756.37 1148.68 2755.21 1145.81 2754.15 1143.27 2752.66 1140.84 2750.72 1138.96 2749.39 1137.69 2746.4 1136.59 2743.96 1135.71L2743.41 1135.49 2743.41 1135.49 2743.41 1135.49C2741.91 1134.99 2740.58 1134.55 2739.31 1134.22 2736.15 1133.22 2733.44 1132.45 2729.62 1130.08L2729.51 1129.97C2725.85 1127.76 2723.97 1124 2723.03 1119.97 2722.25 1116.72 2722.14 1113.24 2722.03 1110.59 2722.03 1109.04 2722.64 1107.61 2723.69 1106.56L2723.69 1106.56C2725.02 1105.29 2726.35 1103.08 2727.62 1100.65 2729.29 1097.45 2730.56 1093.97 2731.28 1091.38 2731.72 1089.72 2732.89 1088.45 2734.33 1087.79 2735.16 1087.35 2735.71 1086.52 2736.1 1085.58 2736.6 1084.26 2736.65 1082.71 2736.26 1081.39 2736.04 1080.72 2735.99 1080.12 2736.04 1079.51L2736.04 1079.51 2737.04 1064.11C2737.04 1063.94 2737.04 1063.83 2737.1 1063.67 2737.15 1062.06 2736.71 1060.35 2735.93 1058.7 2734.94 1056.65 2733.33 1054.72 2731.45 1053.29 2729.67 1051.96 2727.68 1051.08 2725.74 1050.86 2724.47 1050.75 2723.14 1050.97 2721.86 1051.58 2720.09 1052.46 2718.04 1052.24 2716.49 1051.24L2716.49 1051.24C2715.27 1050.47 2714.33 1049.92 2713.45 1049.53 2712.62 1049.15 2711.73 1048.93 2710.46 1048.71 2709.07 1048.48 2707.74 1048.37 2706.41 1048.43 2702.04 1048.48 2697.77 1049.81 2694.39 1052.24 2691.29 1054.5 2689.08 1057.65 2688.41 1061.62 2688.25 1062.51 2688.19 1063.33 2688.19 1064.22L2689.19 1079.51ZM2585.29 1063.78C2583.85 1062.23 2582.74 1060.41 2581.96 1058.42 2581.91 1058.26 2581.85 1058.03 2581.74 1057.81 2581.58 1055.99 2581.3 1054.17 2580.86 1052.4 2580.8 1051.08 2580.91 1049.81 2581.19 1048.54 2580.69 1046.55 2580.3 1044.57 2580.02 1042.52 2579.03 1035.68 2579.14 1028.56 2581.41 1022.54 2583.96 1015.86 2588.89 1010.67 2597.47 1008.57 2597.91 1008.46 2598.36 1008.35 2598.8 1008.3 2604.01 1004.16 2612.2 1002.39 2620.46 1002.94 2629.21 1003.49 2638.34 1006.58 2643.88 1012.1L2643.88 1012.1C2648.48 1016.69 2651.58 1022.1 2652.97 1028.56 2654.19 1034.02 2654.07 1040.26 2652.63 1047.27 2649.2 1045.89 2645.66 1044.84 2642 1044.12 2642.94 1039.04 2643 1034.68 2642.17 1030.87 2641.22 1026.62 2639.18 1023.04 2636.02 1019.89L2636.02 1019.89C2632.47 1016.36 2626.1 1014.31 2619.79 1013.93 2613.64 1013.54 2607.88 1014.64 2605.22 1017.35 2604.23 1018.29 2603.06 1018.84 2601.79 1018.95 2601.18 1019.01 2600.63 1019.12 2600.13 1019.28 2595.64 1020.39 2593.04 1023.04 2591.77 1026.4 2590.22 1030.49 2590.22 1035.73 2590.99 1040.98 2591.27 1043.13 2591.71 1045.23 2592.21 1047.21 2592.49 1048.26 2592.38 1049.31 2592.1 1050.25 2591.71 1051.63 2591.82 1053.18 2592.32 1054.56 2592.49 1054.94 2592.65 1055.27 2592.87 1055.61 2589.77 1057.92 2587.28 1060.68 2585.29 1063.78ZM2608.77 927.919C2611.7 927.036 2614.75 926.815 2617.74 927.146 2619.85 927.367 2621.95 927.864 2624 928.637 2626.05 927.864 2628.15 927.367 2630.26 927.146 2633.25 926.815 2636.3 927.036 2639.23 927.919 2644.38 929.354 2648.81 932.943 2651.86 937.47 2653.3 939.567 2654.41 941.941 2655.18 944.37 2651.42 945.088 2647.87 946.247 2644.66 947.848 2644.27 946.357 2643.61 944.922 2642.72 943.597 2641.06 941.168 2638.73 939.236 2636.24 938.518 2634.63 938.077 2633.03 937.911 2631.42 938.077 2629.76 938.242 2628.1 938.739 2626.49 939.567L2624 940.782 2621.51 939.567C2619.9 938.739 2618.24 938.242 2616.58 938.077 2614.97 937.911 2613.42 938.077 2611.76 938.518 2609.27 939.236 2606.94 941.168 2605.28 943.597 2603.78 945.805 2602.9 948.4 2602.9 950.884 2600.9 950.277 2598.91 949.891 2596.86 949.669 2595.2 949.559 2593.54 949.504 2591.88 949.669 2592.15 945.364 2593.7 941.113 2596.14 937.47 2599.19 932.943 2603.62 929.354 2608.77 927.919ZM2502.6 1032.03C2502.32 1029.27 2502.65 1026.35 2503.65 1023.7 2503.43 1022.26 2503.32 1020.77 2503.32 1019.17L2503.37 1019.17C2503.37 1012.33 2505.31 1004.27 2509.69 997.531 2514.17 990.521 2521.1 984.834 2530.9 982.902 2533.22 982.405 2535.66 982.185 2538.26 982.185 2540.81 982.185 2543.25 982.405 2545.58 982.902 2555.38 984.834 2562.3 990.521 2566.79 997.531 2570.22 1002.89 2572.22 1008.96 2572.88 1014.64 2572.22 1015.91 2571.61 1017.29 2571.11 1018.67 2569.45 1022.98 2568.67 1027.62 2568.45 1032.25 2566.68 1030.71 2564.74 1029.33 2562.69 1028.17 2562.58 1027.73 2562.41 1027.29 2562.19 1026.84L2562.19 1026.79C2561.64 1025.69 2561.47 1024.42 2561.69 1023.26L2561.69 1023.26C2561.97 1022.04 2562.08 1020.66 2562.08 1019.17 2562.08 1014.2 2560.64 1008.35 2557.48 1003.49 2554.49 998.801 2549.9 994.992 2543.42 993.722 2541.81 993.391 2540.09 993.225 2538.26 993.225 2536.38 993.225 2534.66 993.391 2533.06 993.722 2526.58 994.992 2521.98 998.801 2518.99 1003.49 2515.83 1008.41 2514.39 1014.2 2514.39 1019.17L2514.39 1019.17C2514.39 1020.66 2514.5 1022.04 2514.78 1023.26 2514.89 1023.97 2514.89 1024.64 2514.84 1025.24 2510.3 1026.62 2506.14 1029 2502.6 1032.03ZM2684.26 982.958C2684.2 981.798 2684.04 980.694 2683.82 979.645 2683.1 976.167 2681.38 973.186 2678.78 970.647L2678.78 970.647C2675.84 967.721 2670.58 966.01 2665.32 965.734 2660.28 965.403 2655.57 966.286 2653.41 968.439 2652.47 969.377 2651.25 969.874 2649.98 970.04 2649.53 970.095 2649.09 970.15 2648.65 970.26 2645.1 971.144 2643.05 973.242 2642 975.947 2640.73 979.314 2640.73 983.675 2641.39 988.091 2641.61 989.858 2642 991.68 2642.44 993.391 2642.66 994.385 2642.61 995.434 2642.33 996.372 2642.22 996.759 2642.17 997.145 2642.17 997.531 2638.73 995.765 2634.97 994.385 2631.09 993.446 2630.87 992.177 2630.65 990.907 2630.42 989.637 2629.59 983.62 2629.65 977.382 2631.7 972.082 2633.91 966.12 2638.34 961.483 2646.04 959.606 2646.38 959.496 2646.65 959.44 2646.98 959.385 2651.64 955.797 2658.84 954.251 2665.98 954.693 2673.68 955.19 2681.71 957.95 2686.64 962.808L2686.64 962.808C2690.68 966.893 2693.4 971.641 2694.67 977.327 2695 978.983 2695.22 980.639 2695.34 982.405 2691.62 982.019 2687.91 982.185 2684.26 982.958ZM2551.22 972.911C2553 969.267 2555.71 966.231 2558.98 963.912 2563.85 960.379 2570.06 958.392 2576.42 958.281 2578.36 958.226 2580.25 958.392 2582.13 958.668 2584.34 959.054 2586.01 959.496 2587.56 960.213 2588.22 960.49 2588.89 960.821 2589.55 961.207 2591.66 960.6 2593.76 960.434 2595.86 960.655 2599.8 960.986 2603.62 962.642 2606.78 965.071 2609.82 967.39 2612.43 970.537 2614.09 973.959 2615.69 977.216 2616.52 980.749 2616.25 984.227L2616.25 984.448 2615.75 991.845C2611.93 992.011 2608.16 992.563 2604.56 993.502L2605.22 983.786C2605.22 983.62 2605.22 983.51 2605.28 983.344 2605.34 981.909 2604.95 980.308 2604.17 978.817 2603.29 976.885 2601.79 975.174 2600.07 973.849 2598.41 972.579 2596.64 971.751 2594.87 971.585 2593.65 971.475 2592.49 971.641 2591.32 972.193 2589.55 973.076 2587.5 972.911 2585.95 971.917L2585.95 971.917C2584.79 971.199 2583.96 970.647 2583.13 970.316 2582.35 969.985 2581.52 969.709 2580.36 969.543 2579.08 969.322 2577.81 969.267 2576.59 969.267 2572.49 969.322 2568.56 970.592 2565.46 972.8 2563.8 974.014 2562.41 975.505 2561.42 977.216 2558.37 975.395 2554.94 973.959 2551.22 972.911ZM2678 945.75C2681.66 942.383 2686.36 939.788 2692.07 938.684 2694.17 938.242 2696.39 938.021 2698.77 938.021 2701.15 938.021 2703.37 938.242 2705.47 938.684 2714.39 940.45 2720.76 945.64 2724.86 952.043 2728.84 958.226 2730.62 965.513 2730.62 971.751 2730.62 973.131 2730.56 974.456 2730.39 975.726 2731.45 978.817 2731.67 982.24 2731 985.331 2730.84 986.104 2730.62 986.877 2730.34 987.65 2727.62 985.883 2724.69 984.503 2721.53 983.62 2721.09 983.51 2720.59 983.344 2720.15 983.233L2720.2 983.123C2720.48 981.688 2720.37 980.087 2719.7 978.872 2719.54 978.541 2719.43 978.21 2719.37 977.879 2719.1 976.995 2719.1 976.167 2719.26 975.339L2719.21 975.284C2719.43 974.235 2719.54 973.021 2719.54 971.751 2719.54 967.39 2718.32 962.256 2715.55 958.005 2712.95 953.92 2708.9 950.608 2703.31 949.504 2701.93 949.228 2700.38 949.062 2698.77 949.062 2697.16 949.062 2695.61 949.228 2694.23 949.504 2692.57 949.835 2691.02 950.387 2689.58 951.049 2686.14 948.731 2682.15 946.965 2678 945.75ZM2520.54 974.511C2520.6 973.573 2520.65 972.69 2520.82 971.806 2520.43 970.095 2520.15 968.439 2519.88 966.728 2519.05 960.71 2519.1 954.472 2521.15 949.173 2523.37 943.155 2527.8 938.518 2535.5 936.641 2535.77 936.586 2536.1 936.531 2536.44 936.42 2541.09 932.888 2548.29 931.342 2555.43 931.783 2563.13 932.28 2571.16 935.04 2576.09 939.899L2576.09 939.899C2578.09 941.941 2579.8 944.094 2581.13 946.468 2581.08 946.799 2581.02 947.13 2581.02 947.461 2579.42 947.296 2577.86 947.24 2576.26 947.296 2573.66 947.296 2571.11 947.572 2568.62 948.068 2568.5 947.958 2568.39 947.848 2568.23 947.682L2568.23 947.682C2565.29 944.812 2560.03 943.1 2554.77 942.769 2549.73 942.493 2545.02 943.321 2542.86 945.474 2541.92 946.468 2540.7 946.965 2539.43 947.075 2538.98 947.185 2538.54 947.24 2538.1 947.351 2534.55 948.234 2532.51 950.332 2531.45 953.037 2530.18 956.404 2530.18 960.766 2530.84 965.182 2531.06 966.948 2531.45 968.715 2531.9 970.426 2531.95 970.813 2532.01 971.144 2532.01 971.53 2530.9 971.696 2529.79 971.861 2528.74 972.082 2525.8 972.634 2523.09 973.462 2520.54 974.511ZM2671.63 1198.53C2658.45 1201.95 2640.23 1203 2629.54 1203 2618.85 1203 2600.63 1201.95 2587.45 1198.53 2576.54 1195.71 2568.62 1190.91 2568.62 1183.13 2568.62 1178.49 2569.56 1173.58 2571.38 1168.99 2573.16 1164.63 2575.7 1160.55 2579.08 1157.29 2582.24 1154.26 2586.78 1152.54 2590.44 1151.22 2590.55 1151.16 2590.6 1151.11 2590.71 1151.11L2591.32 1150.89C2593.32 1150.17 2594.98 1149.62 2596.53 1149.18 2599.19 1148.4 2601.46 1147.69 2604.28 1145.97 2604.39 1145.92 2604.5 1145.86 2604.62 1145.75 2605.39 1145.31 2605.11 1141.45 2604.84 1138.14 2604.78 1137.47 2604.73 1136.81 2604.67 1136.15 2601.02 1131.62 2599.52 1125.99 2598.08 1120.64 2595.53 1118.7 2593.65 1116.11 2592.54 1113.18 2591.32 1109.87 2591.05 1106.12 2591.71 1102.69 2591.21 1100.54 2590.82 1098.39 2590.49 1096.18 2589.44 1088.89 2589.55 1081.33 2591.99 1074.93 2594.65 1067.86 2599.85 1062.4 2608.94 1060.13 2609.43 1060.02 2609.93 1059.91 2610.43 1059.8 2615.97 1055.39 2624.83 1053.51 2633.69 1054.12 2642.94 1054.72 2652.52 1058.03 2658.39 1063.83 2663.27 1068.74 2666.54 1074.49 2668.03 1081.33 2669.42 1087.51 2669.19 1094.58 2667.37 1102.69 2668.03 1106.17 2667.81 1109.87 2666.54 1113.18 2665.43 1116.11 2663.6 1118.7 2661 1120.64L2661 1120.64C2659.61 1125.94 2658.17 1131.51 2654.41 1136.15 2654.35 1137.03 2654.3 1137.86 2654.24 1138.74 2653.96 1141.78 2653.69 1145.2 2654.35 1145.75 2654.46 1145.75 2654.52 1145.81 2654.63 1145.86 2657.51 1147.69 2659.83 1148.35 2662.55 1149.18 2664.1 1149.62 2665.76 1150.17 2667.75 1150.89L2668.36 1151.11 2668.36 1151.11C2672.07 1152.49 2676.73 1154.14 2679.99 1157.29 2683.37 1160.55 2685.92 1164.63 2687.69 1168.99 2689.52 1173.58 2690.46 1178.49 2690.46 1183.13 2690.46 1190.91 2682.54 1195.71 2671.63 1198.53Z" fill="#F07D00" fill-rule="evenodd"/></g></svg>