<svg width="288" height="294" xmlns="http://www.w3.org/2000/svg" xmlns:xlink="http://www.w3.org/1999/xlink" xml:space="preserve" overflow="hidden"><defs><clipPath id="clip0"><rect x="2072" y="1696" width="288" height="294"/></clipPath></defs><g clip-path="url(#clip0)" transform="translate(-2072 -1696)"><path d="M2276.92 1934.53 2276.92 1856.87C2281.35 1856.87 2285.78 1856.87 2290.22 1856.87L2321.23 1915.17 2321.23 1856.87 2332.31 1856.87 2332.31 1934.53C2327.88 1934.53 2323.45 1934.53 2319.02 1934.53L2288 1876.23 2288 1934.53 2276.92 1934.53ZM2315.19 1779.21 2239.37 1718.47C2240.92 1714.25 2241.31 1709.65 2240.48 1705.21L2332.81 1779.21 2315.19 1779.21ZM2099.19 1779.21 2191.52 1705.21C2190.69 1709.65 2191.08 1714.25 2192.63 1718.47L2116.81 1779.21 2099.19 1779.21ZM2360 1790.3 2360 1990 2072 1990 2072 1790.3 2360 1790.3ZM2348.92 1801.4 2083.08 1801.4 2083.08 1978.91 2348.92 1978.91 2348.92 1801.4ZM2216 1696C2223.64 1696 2229.85 1702.21 2229.85 1709.87 2229.85 1717.52 2223.64 1723.74 2216 1723.74 2197.89 1723.74 2197.89 1696 2216 1696ZM2144 1884.6C2144 1875.45 2136.52 1867.96 2127.38 1867.96 2118.25 1867.96 2110.77 1875.45 2110.77 1884.6L2110.77 1906.79C2110.77 1915.95 2118.25 1923.43 2127.38 1923.43 2136.52 1923.43 2144 1915.95 2144 1906.79L2144 1884.6ZM2155.08 1884.6 2155.08 1906.79C2155.08 1922.1 2142.62 1934.53 2127.38 1934.53 2112.1 1934.53 2099.69 1922.05 2099.69 1906.79L2099.69 1884.6C2099.69 1869.29 2112.15 1856.87 2127.38 1856.87 2142.62 1856.87 2155.08 1869.29 2155.08 1884.6ZM2160.62 1934.53 2160.62 1856.87 2193.85 1856.87C2206.03 1856.87 2216 1866.85 2216 1879.06 2216 1891.26 2206.03 1901.25 2193.85 1901.25L2171.69 1901.25 2171.69 1934.53 2160.62 1934.53ZM2171.69 1867.96 2171.69 1890.15 2193.85 1890.15C2199.94 1890.15 2204.92 1885.16 2204.92 1879.06 2204.92 1872.95 2199.94 1867.96 2193.85 1867.96L2171.69 1867.96ZM2271.38 1867.96 2232.62 1867.96 2232.62 1890.15 2254.77 1890.15 2254.77 1901.25 2232.62 1901.25 2232.62 1923.43 2271.38 1923.43 2271.38 1934.53 2221.54 1934.53 2221.54 1856.87 2271.38 1856.87 2271.38 1867.96Z" fill="#F07D00" fill-rule="evenodd"/></g></svg>