<svg width="94" height="94" xmlns="http://www.w3.org/2000/svg" xmlns:xlink="http://www.w3.org/1999/xlink" xml:space="preserve" overflow="hidden"><g transform="translate(-357 -485)"><path d="M404 507.69C404.972 507.69 405.912 507.738 406.852 507.852L407.339 505.437C404.421 504.205 402.379 501.32 402.379 497.966 402.379 493.492 406.01 489.862 410.483 489.862 414.956 489.862 418.586 493.492 418.586 497.966 418.586 502.422 414.972 506.053 410.515 506.069L410.045 508.451C411.471 508.808 412.849 509.31 414.162 509.91 415.264 506.733 418.278 504.448 421.828 504.448 426.301 504.448 429.931 508.079 429.931 512.552 429.931 515.858 427.954 518.694 425.118 519.958 426.041 521.579 426.787 523.313 427.322 525.144L429.947 524.431C429.931 524.253 429.931 524.075 429.931 523.897 429.931 519.423 433.561 515.793 438.034 515.793 442.508 515.793 446.138 519.423 446.138 523.897 446.138 528.37 442.508 532 438.034 532 434.874 532 432.135 530.185 430.79 527.543L428.035 528.305C428.213 529.504 428.31 530.736 428.31 532 428.31 534.625 427.889 537.138 427.127 539.504L429.639 540.509C431.098 538.321 433.578 536.862 436.414 536.862 440.887 536.862 444.517 540.492 444.517 544.966 444.517 549.439 440.887 553.069 436.414 553.069 431.941 553.069 428.31 549.439 428.31 544.966 428.31 544.463 428.359 543.993 428.44 543.523L425.928 542.518C424.226 546.051 421.698 549.115 418.586 551.448 423.059 551.448 426.69 555.079 426.69 559.552 426.69 564.025 423.059 567.655 418.586 567.655 414.113 567.655 410.483 564.025 410.483 559.552 410.483 557.866 411.001 556.294 411.877 554.998 409.413 555.857 406.755 556.31 404 556.31 402.541 556.31 401.099 556.181 399.721 555.938L399.138 558.612C402.007 559.86 404 562.712 404 566.034 404 570.508 400.37 574.138 395.897 574.138 391.423 574.138 387.793 570.508 387.793 566.034 387.793 561.561 391.423 557.931 395.897 557.931L395.978 557.931 396.577 555.16C393.336 554.122 390.386 552.421 387.907 550.217L385.2 552.469C385.816 553.604 386.172 554.917 386.172 556.31 386.172 560.783 382.542 564.414 378.069 564.414 373.596 564.414 369.966 560.783 369.966 556.31 369.966 551.837 373.596 548.207 378.069 548.207 379.981 548.207 381.748 548.871 383.142 549.99L385.621 547.915C382.364 544.155 380.241 539.39 379.787 534.156L378.037 534.35C377.664 538.483 374.196 541.724 369.966 541.724 365.492 541.724 361.862 538.094 361.862 533.621 361.862 529.148 365.492 525.517 369.966 525.517 373.58 525.517 376.627 527.883 377.68 531.141L379.706 530.914C379.852 527.624 380.662 524.496 381.975 521.676L380.938 521.109C379.447 522.811 377.275 523.897 374.828 523.897 370.354 523.897 366.724 520.266 366.724 515.793 366.724 511.32 370.354 507.69 374.828 507.69 379.301 507.69 382.931 511.32 382.931 515.793 382.931 516.668 382.785 517.511 382.526 518.305L383.547 518.856C384.811 516.895 386.334 515.145 388.085 513.621 385.07 512.438 382.931 509.505 382.931 506.069 382.931 501.596 386.561 497.966 391.034 497.966 395.508 497.966 399.138 501.596 399.138 506.069 399.138 506.814 399.041 507.544 398.846 508.241 400.499 507.884 402.233 507.69 404 507.69ZM382.98 530.541 384.373 530.396C385.265 530.298 386.059 530.93 386.156 531.822 386.253 532.713 385.621 533.507 384.73 533.604L383.012 533.799C383.725 542.291 389.479 549.341 397.258 551.967L397.55 550.573C397.744 549.698 398.603 549.147 399.478 549.325 400.353 549.503 400.904 550.362 400.726 551.238L400.402 552.761C401.569 552.956 402.768 553.069 404 553.069 406.869 553.069 409.608 552.502 412.103 551.448L409.073 546.181C408.635 545.403 408.911 544.414 409.672 543.961 410.45 543.523 411.439 543.782 411.893 544.56L414.988 549.99C421.033 546.278 425.069 539.617 425.069 532 425.069 531.044 425.004 530.088 424.874 529.164L420.628 530.314C419.769 530.558 418.878 530.039 418.651 529.18 418.408 528.321 418.927 527.43 419.786 527.203L424.194 526.003C422.119 518.986 416.496 513.508 409.397 511.628L408.83 514.497C408.651 515.372 407.809 515.939 406.917 515.761 406.042 515.582 405.475 514.74 405.653 513.848L406.22 511.044C405.491 510.963 404.746 510.931 404 510.931 396.642 510.931 390.176 514.707 386.399 520.412L390.192 522.47C390.97 522.908 391.261 523.88 390.824 524.674 390.402 525.452 389.43 525.744 388.636 525.307L384.827 523.232C383.806 525.485 383.158 527.948 382.98 530.541ZM392.056 510.818C392.752 510.429 393.482 510.056 394.227 509.732 395.248 508.84 395.897 507.528 395.897 506.069 395.897 503.379 393.725 501.207 391.034 501.207 388.344 501.207 386.172 503.379 386.172 506.069 386.172 508.759 388.344 510.931 391.034 510.931 391.391 510.931 391.731 510.899 392.056 510.818ZM410.483 493.103C407.792 493.103 405.621 495.275 405.621 497.966 405.621 500.656 407.792 502.828 410.483 502.828 413.173 502.828 415.345 500.656 415.345 497.966 415.345 495.275 413.173 493.103 410.483 493.103ZM374.828 510.931C372.137 510.931 369.966 513.103 369.966 515.793 369.966 518.483 372.137 520.655 374.828 520.655 377.518 520.655 379.69 518.483 379.69 515.793 379.69 513.103 377.518 510.931 374.828 510.931ZM369.966 528.759C367.275 528.759 365.103 530.93 365.103 533.621 365.103 536.311 367.275 538.483 369.966 538.483 372.656 538.483 374.828 536.311 374.828 533.621 374.828 530.93 372.656 528.759 369.966 528.759ZM378.069 551.448C375.379 551.448 373.207 553.62 373.207 556.31 373.207 559.001 375.379 561.172 378.069 561.172 380.759 561.172 382.931 559.001 382.931 556.31 382.931 553.62 380.759 551.448 378.069 551.448ZM395.897 561.172C393.206 561.172 391.034 563.344 391.034 566.034 391.034 568.725 393.206 570.897 395.897 570.897 398.587 570.897 400.759 568.725 400.759 566.034 400.759 563.344 398.587 561.172 395.897 561.172ZM418.586 554.69C415.896 554.69 413.724 556.861 413.724 559.552 413.724 562.242 415.896 564.414 418.586 564.414 421.277 564.414 423.448 562.242 423.448 559.552 423.448 556.861 421.277 554.69 418.586 554.69ZM436.414 540.103C433.723 540.103 431.552 542.275 431.552 544.966 431.552 547.656 433.723 549.828 436.414 549.828 439.104 549.828 441.276 547.656 441.276 544.966 441.276 542.275 439.104 540.103 436.414 540.103ZM438.034 519.034C435.344 519.034 433.172 521.206 433.172 523.897 433.172 526.587 435.344 528.759 438.034 528.759 440.725 528.759 442.897 526.587 442.897 523.897 442.897 521.206 440.725 519.034 438.034 519.034ZM417.079 511.498C419.461 513.022 421.568 514.95 423.286 517.187 425.263 516.571 426.69 514.723 426.69 512.552 426.69 509.861 424.518 507.69 421.828 507.69 419.51 507.69 417.565 509.327 417.079 511.498Z" fill="#F07D00"/></g></svg>